<svg xmlns="http://www.w3.org/2000/svg" width="512" height="512" viewBox="0 0 512 512">
  <g fill="none" fill-rule="evenodd">
    <circle cx="256" cy="256" r="256" fill="#2E282A"/>
    <g fill-rule="nonzero" transform="translate(111 144)">
      <path fill="#FFFFFF" d="M239.001046,174.322148 L133.116418,174.322148 L55.9819209,216 L56.6831436,174.322148 C30.036681,174.322148 9,152.788591 9,127.087248 L9,56.2348993 C9,29.8389262 30.7379037,9 56.6831436,9 L238.299823,9 C264.946286,9 285.982967,30.533557 285.982967,56.2348993 L285.982967,127.781879 C286.684189,153.483221 265.647508,174.322148 239.001046,174.322148 L239.001046,174.322148 Z"/>
      <path fill="#17BEBB" d="M239.001046,174.322148 L133.116418,174.322148 L55.9819209,216 L56.6831436,174.322148 C30.036681,174.322148 9,152.788591 9,127.087248 L9,56.2348993 C9,29.8389262 30.7379037,9 56.6831436,9 L238.299823,9 C264.946286,9 285.982967,30.533557 285.982967,56.2348993 L285.982967,127.781879 C286.684189,153.483221 265.647508,174.322148 239.001046,174.322148 L239.001046,174.322148 Z"/>
      <path fill="#17BEBB" d="M239.264318,168.900152 C206.432307,168.900152 165.916207,161.901527 134.481302,168.900152 C107.237718,175.198915 78.5970274,198.294378 53.4491036,211.591766 C56.2433174,212.991491 59.0375311,215.091078 61.8317449,216.490803 C61.8317449,202.493553 62.5302983,188.496303 62.5302983,174.499053 C62.5302983,171.699602 60.434638,168.900152 56.9418708,168.20029 C15.727218,164.001115 14.3301111,129.007989 14.3301111,97.5141764 C14.3301111,66.720226 8.74168359,29.6275129 46.4635692,17.0299877 C56.9418708,13.5306752 73.0085999,16.3301252 84.1854549,16.3301252 L148.452371,16.3301252 C178.490169,16.3301252 214.814948,10.7312252 244.154192,17.7298503 C281.177524,26.8280629 277.684757,61.1213259 277.684757,90.5155513 C277.684757,124.108952 282.574631,164.001115 235.771551,168.20029 C228.087463,168.900152 227.38891,183.597265 236.470104,182.897403 C299.339914,176.59864 290.957273,110.111702 290.258719,63.2209134 C288.861612,11.4310877 254.632494,0.933150013 209.925074,0.933150013 C159.629226,0.933150013 109.333379,-1.16643752 59.0375311,0.933150013 C3.15325609,3.03273754 0.359042338,49.9235257 0.359042338,93.3150013 C0.359042338,119.209914 -3.83227829,147.904277 16.4257714,167.500427 C22.0141989,173.099327 29.6982867,177.298503 37.3823746,180.097953 C44.3679089,182.19754 45.7650158,177.998365 47.8606761,181.497678 C52.0519968,187.79644 47.1621227,210.891903 47.1621227,219.290253 C47.1621227,224.189291 52.0519968,226.288878 55.5447639,224.189291 C77.898474,212.291628 115.62036,185.696853 132.385642,182.897403 C164.5191,177.298503 201.542432,182.897403 234.374444,182.897403 C244.852746,183.597265 247.646959,168.900152 239.264318,168.900152 L239.264318,168.900152 Z"/>
      <path fill="#FFFFFF" d="M56.7975275,64.2475248 L230.105999,64.2475248 C236.395419,64.2475248 238.491893,53 232.202473,53 L58.8940009,53 C52.6045806,53 50.5081071,64.2475248 56.7975275,64.2475248 Z M56.7975275,94.4752475 L210.538914,94.4752475 C216.828334,94.4752475 218.924807,83.2277228 212.635387,83.2277228 L58.8940009,83.2277228 C52.6045806,82.5247525 50.5081071,94.4752475 56.7975275,94.4752475 Z M56.7975275,124 L230.105999,124 C236.395419,124 238.491893,112.752475 232.202473,112.752475 L58.8940009,112.752475 C52.6045806,112.752475 50.5081071,124 56.7975275,124 Z"/>
    </g>
  </g>
</svg>
